<svg xmlns="http://www.w3.org/2000/svg" width="84" height="64" viewBox="0 0 84 64"><g transform="translate(-2 -2.796)"><rect width="39.201" height="76.639" transform="translate(5.998 63.519) rotate(-90)" fill="#fff"/><rect width="12.603" height="76.638" transform="translate(5.999 36.921) rotate(-90)" fill="#ff0079"/><path d="M4,0h8.218a4,4,0,0,1,4,4V77.986a0,0,0,0,1,0,0H0a0,0,0,0,1,0,0V4A4,4,0,0,1,4,0Z" transform="translate(4.65 22.318) rotate(-90)" fill="#e2e2e5"/><g transform="translate(2 -2.397)"><rect width="4" height="81.366" transform="translate(1.295 26.715) rotate(-90)" fill="#95959f"/></g><circle cx="2.537" cy="2.537" r="2.537" transform="translate(11.82 11.672)" fill="red"/><circle cx="2.537" cy="2.537" r="2.537" transform="translate(19.565 11.672)" fill="#ffba00"/><circle cx="2.537" cy="2.537" r="2.537" transform="translate(27.043 11.672)" fill="#39c449"/><path d="M8-2H72A10.011,10.011,0,0,1,82,8V52A10.011,10.011,0,0,1,72,62H8A10.011,10.011,0,0,1-2,52V8A10.011,10.011,0,0,1,8-2ZM72,58a6.007,6.007,0,0,0,6-6V8a6.007,6.007,0,0,0-6-6H8A6.007,6.007,0,0,0,2,8V52a6.007,6.007,0,0,0,6,6Z" transform="translate(4 4.796)" fill="#95959f"/><text transform="translate(43.85 33.448)" fill="#fff" font-size="8" font-family="Helvetica-Bold, Helvetica" font-weight="700"><tspan x="-13.557" y="0">Notice!</tspan></text></g></svg>