<svg xmlns="http://www.w3.org/2000/svg" width="84" height="64" viewBox="0 0 84 64"><g transform="translate(-2 -2.796)"><path d="M4,0h8.218a4,4,0,0,1,4,4V77.986a0,0,0,0,1,0,0H0a0,0,0,0,1,0,0V4A4,4,0,0,1,4,0Z" transform="translate(4.65 22.318) rotate(-90)" fill="#e2e2e5"/><rect width="38.089" height="74.528" transform="translate(6.904 62.407) rotate(-90)" fill="#fff"/><g transform="translate(18.696 38.427)"><rect width="11.613" height="13.937" rx="2" transform="translate(0 11.613) rotate(-90)" fill="#7fc8ee"/><rect width="11.613" height="13.937" rx="2" transform="translate(18.428 11.613) rotate(-90)" fill="#7fc8ee"/><rect width="11.613" height="13.937" rx="2" transform="translate(36.857 11.613) rotate(-90)" fill="#7fc8ee"/></g><g transform="translate(2 -2.397)"><rect width="4" height="81.366" transform="translate(1.295 26.715) rotate(-90)" fill="#95959f"/></g><circle cx="2.537" cy="2.537" r="2.537" transform="translate(11.82 11.672)" fill="red"/><circle cx="2.537" cy="2.537" r="2.537" transform="translate(19.565 11.672)" fill="#ffba00"/><circle cx="2.537" cy="2.537" r="2.537" transform="translate(27.043 11.672)" fill="#39c449"/><g transform="translate(9.615 40.329)"><rect width="1.602" height="5.609" transform="translate(3.966) rotate(45)" fill="#95959f"/><rect width="1.602" height="5.609" transform="translate(5.099 6.799) rotate(135)" fill="#95959f"/></g><g transform="translate(78.279 48.261) rotate(180)"><rect width="1.602" height="5.609" transform="translate(3.966 0) rotate(45)" fill="#95959f"/><rect width="1.602" height="5.609" transform="translate(5.099 6.799) rotate(135)" fill="#95959f"/></g><path d="M8-2H72A10.011,10.011,0,0,1,82,8V52A10.011,10.011,0,0,1,72,62H8A10.011,10.011,0,0,1-2,52V8A10.011,10.011,0,0,1,8-2ZM72,58a6.007,6.007,0,0,0,6-6V8a6.007,6.007,0,0,0-6-6H8A6.007,6.007,0,0,0,2,8V52a6.007,6.007,0,0,0,6,6Z" transform="translate(4 4.796)" fill="#95959f"/></g></svg>