<svg width="100" height="100" xmlns="http://www.w3.org/2000/svg" viewBox="0 0 24 24" fill="none" stroke="currentColor" stroke-width="2" stroke-linecap="round" stroke-linejoin="round">
  <!-- Document shape to symbolize a blog -->
  <path d="M8 2h8a2 2 0 0 1 2 2v16a2 2 0 0 1-2 2H8a2 2 0 0 1-2-2V4a2 2 0 0 1 2-2z" />
  <!-- Horizontal lines to represent text -->
  <line x1="12" y1="6" x2="16" y2="6" />
  <line x1="12" y1="10" x2="16" y2="10" />
  <line x1="8" y1="14" x2="16" y2="14" />
  <!-- Link symbol inside the document to indicate blog linking -->
  <path d="M10 17h4m1-1a2 2 0 1 1 0 4h-4a2 2 0 1 1 0-4h4m-5 1a2 2 0 1 1 0-4h4a2 2 0 1 1 0 4h-4" />
</svg>
