<svg xmlns="http://www.w3.org/2000/svg" width="84" height="64" viewBox="0 0 84 64"><g transform="translate(-2 -2.796)"><rect width="39.201" height="76.639" transform="translate(5.998 63.519) rotate(-90)" fill="#fff"/><path d="M4,0h8.218a4,4,0,0,1,4,4V77.986a0,0,0,0,1,0,0H0a0,0,0,0,1,0,0V4A4,4,0,0,1,4,0Z" transform="translate(4.65 22.318) rotate(-90)" fill="#e2e2e5"/><g transform="translate(2 -2.397)"><rect width="4" height="81.366" transform="translate(1.295 26.715) rotate(-90)" fill="#233042"/></g><circle cx="2.537" cy="2.537" r="2.537" transform="translate(11.82 11.672)" fill="red"/><circle cx="2.537" cy="2.537" r="2.537" transform="translate(19.565 11.672)" fill="#ffba00"/><circle cx="2.537" cy="2.537" r="2.537" transform="translate(27.043 11.672)" fill="#39c449"/><path d="M8-2H72A10.011,10.011,0,0,1,82,8V52A10.011,10.011,0,0,1,72,62H8A10.011,10.011,0,0,1-2,52V8A10.011,10.011,0,0,1,8-2ZM72,58a6.007,6.007,0,0,0,6-6V8a6.007,6.007,0,0,0-6-6H8A6.007,6.007,0,0,0,2,8V52a6.007,6.007,0,0,0,6,6Z" transform="translate(4 4.796)" fill="#233042"/><rect width="3.317" height="39.274" transform="translate(34.436 46.275) rotate(-90)" fill="#95959f"/><rect width="3.317" height="39.274" transform="translate(34.436 52.952) rotate(-90)" fill="#95959f"/><g transform="translate(10.926 33.471)"><g transform="translate(0 0)"><path d="M21.174,16.423a4.094,4.094,0,0,0,.635.067,3.562,3.562,0,0,0,2.272-.8,3.492,3.492,0,0,0,1.27-2.707V11.912a3.543,3.543,0,0,0-1.27-2.707,3.5,3.5,0,0,0-2.907-.735A3.758,3.758,0,0,0,18.3,12.046v.8A3.664,3.664,0,0,0,21.174,16.423Zm-1.2-4.377a2.052,2.052,0,0,1,1.5-1.938,1.371,1.371,0,0,1,.368-.033,1.7,1.7,0,0,1,1.17.434,1.822,1.822,0,0,1,.668,1.4v1.069a1.773,1.773,0,0,1-.668,1.4,1.82,1.82,0,0,1-1.537.4,2.093,2.093,0,0,1-1.5-1.938Z" transform="translate(-12.185 -5.597)" fill="#7fc8ee"/><path d="M19.247,9.623a9.623,9.623,0,1,0-16.24,6.984l.067.067a9.511,9.511,0,0,0,6.549,2.573,9.635,9.635,0,0,0,6.549-2.573c.033-.033.067-.033.067-.067A9.691,9.691,0,0,0,19.247,9.623ZM9.623,1.671a7.972,7.972,0,0,1,7.953,7.953,7.8,7.8,0,0,1-1.8,5.012,7.4,7.4,0,0,0-6.148-3.174,7.488,7.488,0,0,0-6.148,3.174,7.8,7.8,0,0,1-1.8-5.012A7.972,7.972,0,0,1,9.623,1.671ZM4.678,15.839a5.723,5.723,0,0,1,4.945-2.707,5.723,5.723,0,0,1,4.945,2.707,8.013,8.013,0,0,1-4.945,1.738A7.816,7.816,0,0,1,4.678,15.839Z" fill="#7fc8ee"/></g></g><text transform="translate(51.436 39.448)" fill="#ff7600" font-size="7" font-family="HiraginoSans-W6, Hiragino Sans"><tspan x="-17.5" y="0">★★★★</tspan><tspan y="0" fill="#95959f">★</tspan></text></g></svg>