<svg xmlns="http://www.w3.org/2000/svg" xmlns:xlink="http://www.w3.org/1999/xlink" width="84" height="64" viewBox="0 0 84 64"><defs><linearGradient id="a" x1="0.08" y1="0.926" x2="0.907" y2="0.104" gradientUnits="objectBoundingBox"><stop offset="0" stop-color="#eedd7f"/><stop offset="0.498" stop-color="#ff5800"/><stop offset="1" stop-color="#8a00ff"/></linearGradient></defs><g transform="translate(-2 -2.796)"><rect width="39.201" height="76.639" transform="translate(5.998 63.519) rotate(-90)" fill="#fff"/><path d="M4,0h8.218a4,4,0,0,1,4,4V77.986a0,0,0,0,1,0,0H0a0,0,0,0,1,0,0V4A4,4,0,0,1,4,0Z" transform="translate(4.65 22.318) rotate(-90)" fill="#e2e2e5"/><g transform="translate(2 -2.397)"><rect width="4" height="81.366" transform="translate(1.295 26.715) rotate(-90)" fill="#233042"/></g><circle cx="2.537" cy="2.537" r="2.537" transform="translate(11.82 11.672)" fill="red"/><circle cx="2.537" cy="2.537" r="2.537" transform="translate(19.565 11.672)" fill="#ffba00"/><circle cx="2.537" cy="2.537" r="2.537" transform="translate(27.043 11.672)" fill="#39c449"/><path d="M8-2H72A10.011,10.011,0,0,1,82,8V52A10.011,10.011,0,0,1,72,62H8A10.011,10.011,0,0,1-2,52V8A10.011,10.011,0,0,1,8-2ZM72,58a6.007,6.007,0,0,0,6-6V8a6.007,6.007,0,0,0-6-6H8A6.007,6.007,0,0,0,2,8V52a6.007,6.007,0,0,0,6,6Z" transform="translate(4 4.796)" fill="#233042"/><path d="M24.388,28.714V21.03H33.61v7.684Zm-12.194,0V21.03h9.222v7.684ZM0,28.714V21.03H9.222v7.684Zm24.388-10.25V10.78H33.61v7.684Zm-12.194,0V10.78h9.222v7.684ZM0,18.464V10.78H9.222v7.684ZM24.388,7.684V0H33.61V7.684Zm-12.194,0V0h9.222V7.684ZM0,7.684V0H9.222V7.684Z" transform="translate(26.838 29.89)" fill="url(#a)"/><path d="M34.11,29.214H23.888V20.53H34.11Zm-9.222-1H33.11V21.53H24.888Zm-2.972,1H11.694V20.53H21.916Zm-9.222-1h8.222V21.53H12.694Zm-2.972,1H-.5V20.53H9.722Zm-9.222-1H8.722V21.53H.5Zm33.61-9.25H23.888V10.28H34.11Zm-9.222-1H33.11V11.28H24.888Zm-2.972,1H11.694V10.28H21.916Zm-9.222-1h8.222V11.28H12.694Zm-2.972,1H-.5V10.28H9.722Zm-9.222-1H8.722V11.28H.5Zm33.61-9.78H23.888V-.5H34.11Zm-9.222-1H33.11V.5H24.888Zm-2.972,1H11.694V-.5H21.916Zm-9.222-1h8.222V.5H12.694Zm-2.972,1H-.5V-.5H9.722ZM.5,7.184H8.722V.5H.5Z" transform="translate(26.838 29.89)" fill="rgba(0,0,0,0)"/></g></svg>