<svg xmlns="http://www.w3.org/2000/svg" width="84" height="64" viewBox="0 0 84 64"><g transform="translate(-2 -2.796)"><path d="M4,0h8.218a4,4,0,0,1,4,4V77.986a0,0,0,0,1,0,0H0a0,0,0,0,1,0,0V4A4,4,0,0,1,4,0Z" transform="translate(4.65 22.318) rotate(-90)" fill="#e2e2e5"/><rect width="38.089" height="74.528" transform="translate(6.904 62.407) rotate(-90)" fill="#fff"/><g transform="translate(2 -2.397)"><rect width="4" height="81.366" transform="translate(1.295 26.715) rotate(-90)" fill="#233042"/></g><circle cx="2.537" cy="2.537" r="2.537" transform="translate(11.82 11.672)" fill="red"/><circle cx="2.537" cy="2.537" r="2.537" transform="translate(19.565 11.672)" fill="#ffba00"/><circle cx="2.537" cy="2.537" r="2.537" transform="translate(27.043 11.672)" fill="#39c449"/><path d="M8-2H72A10.011,10.011,0,0,1,82,8V52A10.011,10.011,0,0,1,72,62H8A10.011,10.011,0,0,1-2,52V8A10.011,10.011,0,0,1,8-2ZM72,58a6.007,6.007,0,0,0,6-6V8a6.007,6.007,0,0,0-6-6H8A6.007,6.007,0,0,0,2,8V52a6.007,6.007,0,0,0,6,6Z" transform="translate(4 4.796)" fill="#233042"/><rect width="15.411" height="32.049" rx="4" transform="translate(45.168 56.774) rotate(-90)" fill="#ff7600"/><text transform="translate(60.969 51.625)" fill="#fff" font-size="7" font-family="Helvetica-Bold, Helvetica" font-weight="700"><tspan x="-7.217" y="0">広告</tspan></text></g></svg>